name dummy_motion_9_GC.mot
datacolumns 40
datarows 9
range 37.50000000 37.58000000
endheader
time	pelvis_rz	pelvis_rx	pelvis_ry	pelvis_tx	pelvis_ty	pelvis_tz	hip_flexion	hip_adduction	hip_rotation	knee_adduction	knee_rotation	knee_flexion	knee_tx	knee_ty	knee_tz	ankle_angle	subtalar_angle	hip_flexion_l	hip_adduction_l	hip_rotation_l	knee_adduction_l	knee_rotation_l	knee_flexion_l	knee_tx_l	knee_ty_l	knee_tz_l	ankle_angle_l	subtalar_angle_l	lumbar_extension	lumbar_bending	lumbar_rotation	arm_flex_r	arm_add_r	arm_rot_r	elbow_flex_r	arm_flex_l	arm_add_l	arm_rot_l	elbow_flex_l	
         37.50000000	          0.00000000	          0.00000000	          0.00000000	          0.00000000	          0.00000000	          0.00000000	        -27.71231038	          7.73384244	          1.03103020	          3.86833801	          0.00682017	         13.69811215	         -0.00170872	          0.03368572	          0.00693256	         26.14404407	         10.97589703	         -2.20397901	         -7.06772963	        -12.46904771	          0.00000000	          0.00000000	          3.78795746	          0.00000000	          0.04200000	          0.00000000	         -9.03782741	         -4.64836719	        -17.20535746	         -7.30141267	          0.84826087	         13.58393493	        -14.75436533	         68.78955531	         17.00623282	         -1.82944688	        -18.45708320	         53.67429175	         50.78960252	
         37.51000000	          0.00000000	          0.00000000	          0.00000000	          0.00000000	          0.00000000	          0.00000000	        -12.18128596	         11.17956968	         -3.68047623	         -3.36299698	         -2.02198675	         -1.94855345	         -0.00812223	          0.04439844	          0.00819177	          0.69948169	        -10.38337432	        -15.81309533	        -18.51439817	         -3.77980050	          0.00000000	          0.00000000	         10.35207709	          0.00000000	          0.04200000	          0.00000000	         11.55980094	         14.61613573	        -12.95438496	          6.15611101	         -2.53017990	        -12.93157388	        -15.18923506	         61.59413416	         17.13967073	         15.50747110	        -16.91278315	         12.09338430	         14.97429009	
         37.52000000	          0.00000000	          0.00000000	          0.00000000	          0.00000000	          0.00000000	          0.00000000	         17.71075324	          9.20586344	         -2.57508729	         -4.98264061	          3.62520782	        -60.32552977	         -0.00300369	          0.04309574	         -0.00017361	          4.92332153	        -15.16733300	         22.06795038	         -9.37896185	         -4.83644008	          0.00000000	          0.00000000	        -33.25558719	          0.00000000	          0.04200000	          0.00000000	         21.60892320	          7.25131478	        -15.35908191	          1.68276340	          4.67714829	         -1.60576202	        -17.05886451	          9.58284770	         19.48663059	          3.50849936	        -15.49903053	          3.99987921	         53.54118859	
         37.53000000	          0.00000000	          0.00000000	          0.00000000	          0.00000000	          0.00000000	          0.00000000	        -26.38891130	        -12.64294098	         -3.19097219	          3.64359375	          1.63261824	        -59.63249434	          0.00058263	          0.05034002	          0.00734682	          8.61545485	         10.31206749	          8.70177787	         -2.97819251	          1.03950419	          0.00000000	          0.00000000	          5.94744046	          0.00000000	          0.04200000	          0.00000000	          7.28931621	          1.57667606	        -15.15761508	          8.05095467	         11.14540854	         10.63871846	        -17.76950456	         17.36377250	         15.48121726	         17.86441477	        -18.35590412	         60.68486189	         54.17166037	
         37.54000000	          0.00000000	          0.00000000	          0.00000000	          0.00000000	          0.00000000	          0.00000000	        -15.62213919	         -3.69395335	         -2.52296360	          4.74035998	          1.86819841	        -43.78022656	          0.00984812	          0.04985538	         -0.00719350	          2.56305435	         13.55159761	         10.28203565	         13.55862838	          0.64640244	          0.00000000	          0.00000000	        -69.84941749	          0.00000000	          0.04200000	          0.00000000	         -4.23627472	         -5.08069130	        -16.67406554	         12.84675760	         11.51211828	         12.46462959	        -16.70572868	          5.38528432	          2.89501210	        -13.82173349	        -18.17203857	         14.41787869	         49.38561816	
         37.55000000	          0.00000000	          0.00000000	          0.00000000	          0.00000000	          0.00000000	          0.00000000	         27.58431692	        -15.78615319	        -11.59199784	          2.21574676	         -3.83852580	        -36.79521679	         -0.00788782	          0.03398590	         -0.00480520	         16.64740981	          6.09462060	        -27.99833137	        -18.09603783	        -12.22556973	          0.00000000	          0.00000000	        -57.39949997	          0.00000000	          0.04200000	          0.00000000	         11.43760546	         15.41406219	        -15.64865804	         15.61971890	         -7.68000549	        -15.95284579	        -16.09839185	         15.90501113	         10.22407380	         13.24227692	        -17.86588376	         64.84398498	         43.06232092	
         37.56000000	          0.00000000	          0.00000000	          0.00000000	          0.00000000	          0.00000000	          0.00000000	         16.71107321	        -16.68927148	          1.67534962	          2.20655002	          1.09999273	        -11.33414637	          0.00261089	          0.03676675	          0.00386592	          8.32332235	          6.06745609	          5.12895759	          0.64179077	         -9.96998077	          0.00000000	          0.00000000	        -12.19805486	          0.00000000	          0.04200000	          0.00000000	         13.37772297	          9.82838811	        -19.19097232	         -5.70028335	         -7.73912339	         10.08077718	        -20.03033999	         20.86099646	         39.36237851	         18.24070919	        -15.39683349	         26.92280857	         36.73636156	
         37.57000000	          0.00000000	          0.00000000	          0.00000000	          0.00000000	          0.00000000	          0.00000000	        -22.93892407	        -16.49610304	         -0.38071644	          0.49941363	         -1.37536800	          6.01454714	          0.00208069	          0.03401924	          0.00982110	         13.71557524	          1.02506911	        -11.47561516	         -0.30448169	        -12.19852261	          0.00000000	          0.00000000	         18.84555568	          0.00000000	          0.04200000	          0.00000000	         23.00232682	          9.77434828	        -12.01834607	          6.81146039	         -5.83899980	         16.04010509	        -16.03308807	         37.25514372	         12.04403340	         18.48562877	        -17.33507379	         36.53662531	         11.71120295	
         37.58000000	          0.00000000	          0.00000000	          0.00000000	          0.00000000	          0.00000000	          0.00000000	         29.84485346	        -11.04095751	          0.39489891	          1.02019487	         -0.94748561	         -0.19521733	          0.00549210	          0.04610025	         -0.00927742	         -0.76379796	          2.56330622	         -8.60540550	          5.78410503	         -2.39944194	          0.00000000	          0.00000000	        -80.71263204	          0.00000000	          0.04200000	          0.00000000	         16.91836319	         12.88151256	        -16.59646336	         14.82949623	          0.16782115	          8.98119597	        -18.54516937	         60.46751915	          6.14826725	         19.13997812	        -19.97203613	         46.17772059	         57.44850800	
